<svg width="311" height="310" viewBox="0 0 311 310" fill="none" xmlns="http://www.w3.org/2000/svg">
<path fill-rule="evenodd" clip-rule="evenodd" d="M297.236 92.83C297.34 93.0686 297.444 93.3075 297.548 93.5468C305.693 112.389 310.208 133.167 310.208 155C310.208 176.833 305.693 197.611 297.548 216.453C297.444 216.693 297.34 216.932 297.235 217.171L297.232 217.178L297.17 217.32C297.043 217.608 296.916 217.896 296.787 218.184L296.751 218.265C272.669 272.061 218.819 309.623 156.153 309.997C155.838 309.999 155.523 310 155.208 310C154.892 310 154.577 309.999 154.262 309.997C91.5964 309.623 37.746 272.061 13.6642 218.265L13.628 218.184C13.4994 217.896 13.3718 217.608 13.2449 217.32L13.183 217.179L13.1802 217.172C13.0753 216.933 12.971 216.693 12.8672 216.453C4.72155 197.611 0.20752 176.833 0.20752 155C0.20752 133.167 4.72155 112.389 12.8672 93.5468C12.9708 93.3072 13.075 93.068 13.1797 92.8291L13.181 92.826L13.2449 92.6804C13.3718 92.3919 13.4994 92.1039 13.628 91.8164L13.6642 91.7353C37.746 37.9389 91.5964 0.376992 154.262 0.00282094C154.577 0.000941197 154.892 0 155.208 0C155.523 0 155.838 0.000941218 156.153 0.002821C218.819 0.376996 272.669 37.9389 296.751 91.7353L296.787 91.8164C296.916 92.1039 297.043 92.3919 297.17 92.6804L297.234 92.8269L297.236 92.83ZM244.729 93.6255H292.666L164.482 149.897L244.729 93.6255ZM246.288 91.7353L281.218 68.0042C267.177 47.705 248.358 30.9641 226.388 19.4068L189.106 91.7353H246.288ZM247.424 91.7353L281.234 68.027C286.385 75.4774 290.893 83.4069 294.677 91.7353H247.424ZM186.701 93.6255H156.153V127.809L156.32 150.485L186.701 93.6255ZM187.711 91.7353L226.363 19.394C205.365 8.35275 181.488 2.04624 156.153 1.8931V91.7353H187.711ZM243.506 93.6255H188.132L158.291 151.519L243.506 93.6255ZM154.262 127.807V93.6255H123.714L154.095 150.485L154.262 127.807ZM122.704 91.7353H154.262V1.8931C128.927 2.04624 105.05 8.35275 84.0516 19.394L122.704 91.7353ZM84.0272 19.4068L121.309 91.7353H64.1269L29.1967 68.0042C43.2376 47.705 62.0566 30.9641 84.0272 19.4068ZM29.181 68.027C24.0295 75.4774 19.5217 83.4069 15.7378 91.7353H62.9908L29.181 68.027ZM122.283 93.6255H66.9092L152.124 151.519L122.283 93.6255ZM65.6864 93.6255L145.933 149.897L17.7492 93.6255H65.6864ZM148.483 153.08L3.20037 136.529C4.98358 121.697 8.887 107.519 14.5981 94.3066L148.483 153.08ZM3.19706 136.557C2.47125 142.603 2.09776 148.758 2.09776 155C2.09776 174.122 5.60246 192.422 12.0034 209.296L150.591 155.561L3.19706 136.557ZM12.0131 209.321L122.135 168.486L14.5981 215.693C13.6903 213.593 12.8282 211.469 12.0131 209.321ZM151.281 157.756L100.118 216.374H17.7492L151.281 157.756ZM98.4681 218.265H15.7378C24.686 237.96 37.6828 255.424 53.6652 269.597L98.4681 218.265ZM53.6861 269.615L99.8608 218.265H138.931L118.544 303.692C94.0874 297.682 71.9403 285.796 53.6861 269.615ZM118.571 303.699C130.016 306.509 141.968 308.033 154.262 308.107V218.265H140.3L118.571 303.699ZM140.78 216.374H154.262V163.366L140.78 216.374ZM139.382 216.374L153.047 159.117L101.56 216.374H139.382ZM156.153 163.366L169.635 216.374H156.153V163.366ZM170.115 218.265H156.153V308.107C168.447 308.033 180.399 306.509 191.844 303.699L170.115 218.265ZM191.871 303.692L171.484 218.265H210.554L256.729 269.615C238.475 285.796 216.328 297.682 191.871 303.692ZM256.75 269.597C272.732 255.424 285.729 237.96 294.677 218.265H211.947L256.75 269.597ZM210.297 216.374H292.666L159.134 157.756L210.297 216.374ZM208.855 216.374L157.368 159.117L171.033 216.374H208.855ZM188.28 168.486L298.402 209.321C297.587 211.469 296.725 213.593 295.817 215.693L188.28 168.486ZM298.412 209.296C304.813 192.422 308.317 174.122 308.317 155C308.317 148.758 307.944 142.603 307.218 136.557L159.824 155.561L298.412 209.296ZM307.215 136.529L161.932 153.08L295.817 94.3066C301.528 107.519 305.431 121.697 307.215 136.529Z" fill="#C4A17A"/>
</svg>
