<svg width="115" height="115" viewBox="0 0 115 115" fill="none" xmlns="http://www.w3.org/2000/svg">
<path fill-rule="evenodd" clip-rule="evenodd" d="M110.188 34.4369C110.227 34.5254 110.265 34.6141 110.304 34.7028C113.325 41.6926 115 49.4007 115 57.5C115 65.5993 113.325 73.3074 110.304 80.2972C110.265 80.3861 110.227 80.4749 110.188 80.5635L110.187 80.5659L110.164 80.6186C110.116 80.7256 110.069 80.8324 110.021 80.9391L110.008 80.9692C101.074 100.926 81.0977 114.86 57.8506 114.999C57.7338 115 57.617 115 57.5 115C57.383 115 57.2662 115 57.1494 114.999C33.9023 114.86 13.9256 100.926 4.992 80.9692L4.97855 80.9391C4.93087 80.8324 4.88351 80.7256 4.83646 80.6186L4.81349 80.5662L4.81246 80.5639C4.77354 80.4751 4.73483 80.3862 4.69635 80.2972C1.67456 73.3074 0 65.5993 0 57.5C0 49.4007 1.67456 41.6926 4.69635 34.7028C4.73477 34.614 4.7734 34.5252 4.81226 34.4366L4.81275 34.4355L4.83646 34.3814C4.88351 34.2744 4.93087 34.1676 4.97855 34.0609L4.992 34.0308C13.9256 14.0741 33.9023 0.139852 57.1494 0.00104648C57.2662 0.000349154 57.383 0 57.5 0C57.617 0 57.7338 0.000349161 57.8506 0.0010465C81.0977 0.139853 101.074 14.0741 110.008 34.0308L110.021 34.0609C110.069 34.1676 110.116 34.2744 110.164 34.3814L110.187 34.4358L110.188 34.4369ZM90.7094 34.7321H108.493L60.9404 55.6068L90.7094 34.7321ZM91.288 34.0308L104.246 25.2274C99.0372 17.697 92.056 11.4867 83.9056 7.19931L70.0754 34.0308H91.288ZM91.7094 34.0308L104.252 25.2358C106.163 27.9997 107.835 30.9413 109.239 34.0308H91.7094ZM69.183 34.7321H57.8506V47.4128L57.9128 55.8251L69.183 34.7321ZM69.5577 34.0308L83.8966 7.19457C76.1066 3.0986 67.2491 0.759091 57.8506 0.702279V34.0308H69.5577ZM90.2558 34.7321H69.714L58.6439 56.2088L90.2558 34.7321ZM57.1494 47.4123V34.7321H45.817L57.0872 55.8251L57.1494 47.4123ZM45.4423 34.0308H57.1494V0.702279C47.7509 0.75909 38.8934 3.0986 31.1034 7.19457L45.4423 34.0308ZM31.0944 7.19931L44.9246 34.0308H23.712L10.7541 25.2274C15.9628 17.697 22.944 11.4867 31.0944 7.19931ZM10.7482 25.2358C8.8372 27.9997 7.16494 30.9413 5.76123 34.0308H23.2906L10.7482 25.2358ZM45.286 34.7321H24.7442L56.3561 56.2088L45.286 34.7321ZM24.2906 34.7321L54.0596 55.6068L6.50739 34.7321H24.2906ZM55.0055 56.7879L1.11025 50.6479C1.77176 45.1457 3.21981 39.8863 5.33843 34.9847L55.0055 56.7879ZM1.10902 50.6581C0.839772 52.901 0.701219 55.1842 0.701219 57.5C0.701219 64.5938 2.00135 71.3825 4.37588 77.6419L55.7876 57.7079L1.10902 50.6581ZM4.37948 77.6514L45.231 62.503L5.33843 80.0153C5.00168 79.2362 4.68188 78.4481 4.37948 77.6514ZM56.0433 58.5224L37.0635 80.268H6.50738L56.0433 58.5224ZM36.4515 80.9692H5.76123C9.08073 88.2754 13.9021 94.7542 19.8311 100.012L36.4515 80.9692ZM19.8388 100.018L36.9681 80.9692H51.462L43.899 112.66C34.8264 110.43 26.6106 106.021 19.8388 100.018ZM43.9089 112.662C48.1549 113.705 52.5884 114.27 57.1494 114.298V80.9692H51.9697L43.9089 112.662ZM52.148 80.268H57.1494V60.6035L52.148 80.268ZM51.6293 80.268L56.6983 59.0274L37.5987 80.268H51.6293ZM57.8506 60.6035L62.852 80.268H57.8506V60.6035ZM63.0303 80.9692H57.8506V114.298C62.4116 114.27 66.8451 113.705 71.0911 112.662L63.0303 80.9692ZM71.101 112.66L63.538 80.9692H78.0319L95.1612 100.018C88.3894 106.021 80.1736 110.43 71.101 112.66ZM95.1689 100.012C101.098 94.7542 105.919 88.2754 109.239 80.9692H78.5485L95.1689 100.012ZM77.9365 80.268H108.493L58.9567 58.5224L77.9365 80.268ZM77.4013 80.268L58.3016 59.0274L63.3707 80.268H77.4013ZM69.769 62.503L110.621 77.6514C110.318 78.4481 109.998 79.2362 109.662 80.0153L69.769 62.503ZM110.624 77.6419C112.999 71.3825 114.299 64.5938 114.299 57.5C114.299 55.1842 114.16 52.901 113.891 50.6581L59.2124 57.7079L110.624 77.6419ZM113.89 50.6479L59.9945 56.7879L109.662 34.9847C111.78 39.8863 113.228 45.1457 113.89 50.6479Z" fill="white"/>
</svg>
