<svg width="555" height="557" viewBox="0 0 555 557" fill="none" xmlns="http://www.w3.org/2000/svg">
<path d="M510.406 130.344C549.435 192.115 562.326 266.859 546.245 338.135" stroke="white" stroke-width="4"/>
<path d="M119.053 52.1229C156.613 25.7173 200.176 9.11733 245.784 3.83173C291.391 -1.45388 337.597 4.74253 380.2 21.8577" stroke="white" stroke-width="4"/>
<path d="M91.3478 480.595C57.5015 449.572 31.945 410.583 17.0013 367.17C2.05762 323.757 -1.79946 277.298 5.78067 232.015" stroke="white" stroke-width="4"/>
<path d="M517.452 412.864C498.642 446.207 473.089 475.264 442.424 498.181C411.759 521.099 376.654 537.374 339.348 545.968" stroke="white" stroke-width="4"/>
<path d="M545.495 343.49C540.085 365.46 531.994 386.682 521.404 406.678" stroke="#92C4FF" stroke-width="3" stroke-dasharray="2 2"/>
<path d="M383.752 22.7717C434.847 44.0842 478.351 80.2697 508.614 126.627" stroke="#92C4FF" stroke-width="3" stroke-dasharray="2 2"/>
<path d="M5.69051 229.588C18.092 159.234 57.2894 96.4288 115.041 54.3787" stroke="#92C4FF" stroke-width="3" stroke-dasharray="2 2"/>
<path d="M333.48 547.763C291.692 556.419 248.466 555.266 207.199 544.396C165.931 533.526 127.746 513.235 95.6445 485.116" stroke="#92C4FF" stroke-width="3" stroke-dasharray="2 2"/>
</svg>
