<svg width="35" height="23" viewBox="0 0 35 23" fill="none" xmlns="http://www.w3.org/2000/svg">
<path d="M1.82207 7L0.97207 6.15V0.85L1.82207 -4.76837e-07H3.57207V0.75H2.22207L1.82207 1.15V5.85L2.22207 6.25H3.57207V7H1.82207ZM6.22402 7L5.37402 6.15V0.85L6.22402 -4.76837e-07H7.87402L8.72402 0.85V6.15L7.87402 7H6.22402ZM6.62402 6.25H7.47402L7.87402 5.85V1.15L7.47402 0.75H6.62402L6.22402 1.15V5.85L6.62402 6.25ZM11.0271 7V-4.76837e-07H12.4871L13.6771 6.1H13.8271V-4.76837e-07H14.5771V7H13.1171L11.9271 0.9H11.7771V7H11.0271ZM16.9232 7V-4.76837e-07H18.3832L19.5732 6.1H19.7232V-4.76837e-07H20.4732V7H19.0132L17.8232 0.9H17.6732V7H16.9232ZM22.8193 7V-4.76837e-07H25.5193V0.75H23.6693V3.1H25.0193V3.85H23.6693V6.25H25.5693V7H22.8193ZM28.2264 7L27.3764 6.15V0.85L28.2264 -4.76837e-07H29.9764V0.75H28.6264L28.2264 1.15V5.85L28.6264 6.25H29.9764V7H28.2264ZM32.526 7V0.75H31.376V-4.76837e-07H34.526V0.75H33.376V7H32.526Z" fill="white"/>
<rect y="12" width="4" height="5" fill="white"/>
<rect x="6" y="12" width="4" height="5" fill="white"/>
<rect x="12" y="12" width="4" height="11" fill="white"/>
</svg>
